<?xml version="1.0" encoding="UTF-8"?>
<svg id="Monochrome" xmlns="http://www.w3.org/2000/svg" viewBox="0 0 1024 1024">
  <path id="Lower_Leaf" data-name="Lower Leaf" d="M856.65,872c-216.73-11.12-423.72,21.89-540.42-313.57,93.41,44.02,85.12,112.89,354.83,242.11-240.87-136.42-236.42-213.07-348.16-270.27,400.55,5.37,298.57,161.66,533.74,341.73Z"/>
  <path id="Upper_Leaf" data-name="Upper Leaf" d="M671.07,223.16c-269.58,129.15-261.42,198.02-354.7,242.04,116.72-335.07,323.63-302.08,540.29-313.2-235.29,180.17-133.09,336.54-534.38,341.75,112.4-57.22,107.48-133.9,348.8-270.58Z"/>
  <path id="Branch" d="M306.88,530.14c3.05,9.71,6.16,19.14,9.36,28.29-10.49-4.94-22.27-9.57-35.87-13.95v294.96c0,17.98-14.58,32.56-32.56,32.56h-47.9c-17.98,0-32.56-14.58-32.56-32.56V184.56c0-17.98,14.58-32.56,32.56-32.56h47.9c17.98,0,32.56,14.58,32.56,32.56v294.65c13.65-4.38,25.47-9.04,36-14.01-3.23,9.27-6.39,18.82-9.49,28.66,5.21-.02,10.34-.05,15.39-.12-12.27,6.25-25.94,12.26-41.49,18.1-.13-.05-.27-.11-.41-.16v.31c.14-.05.28-.11.41-.15,15.82,5.93,29.69,12.06,42.13,18.42-5.25-.07-10.6-.11-16.03-.13Z"/>
</svg>